<svg
xmlns="http://www.w3.org/2000/svg"
width="1100"
height="270"
viewBox="0 0 1100 270">

<defs>

  <!-- Dracula mountain fill -->

  <linearGradient
    id="mountainGradient"
    x1="0%"
    y1="0%"
    x2="100%"
    y2="0%">

    <stop
      offset="0%"
      stop-color="#ff79c6"
      stop-opacity="0.16"/>

    <stop
      offset="50%"
      stop-color="#bd93f9"
      stop-opacity="0.32"/>

    <stop
      offset="100%"
      stop-color="#bd93f9"
      stop-opacity="0.20"/>

  </linearGradient>

  <!-- Dracula graph line -->

  <linearGradient
    id="lineGradient"
    x1="0%"
    y1="0%"
    x2="100%"
    y2="0%">

    <stop
      offset="0%"
      stop-color="#ff79c6"/>

    <stop
      offset="55%"
      stop-color="#bd93f9"/>

    <stop
      offset="100%"
      stop-color="#8be9fd"/>

  </linearGradient>

</defs>

<!-- ====================================================== -->
<!-- BACKGROUND -->
<!-- ====================================================== -->

<rect
  width="1100"
  height="270"
  rx="8"
  fill="#282a36"/>

<!-- ====================================================== -->
<!-- NAME -->
<!-- ====================================================== -->

<text
  x="35"
  y="48"
  fill="#ff79c6"
  font-family="Arial, Helvetica, sans-serif"
  font-size="22"
  font-weight="600">

  ANSHAM1 (ANSHAM MAURYA)

</text>

<!-- ====================================================== -->
<!-- LEFT INFORMATION -->
<!-- ====================================================== -->

<text
  x="35"
  y="92"
  fill="#f1fa8c"
  font-family="Arial, Helvetica, sans-serif"
  font-size="13">

  ♧

</text>

<text
  x="55"
  y="92"
  fill="#f1fa8c"
  font-family="Arial, Helvetica, sans-serif"
  font-size="13">

  491 Contributions on GitHub

</text>

<text
  x="35"
  y="123"
  fill="#f1fa8c"
  font-family="Arial, Helvetica, sans-serif"
  font-size="13">

  ▣

</text>

<text
  x="55"
  y="123"
  fill="#f1fa8c"
  font-family="Arial, Helvetica, sans-serif"
  font-size="13">

  15 Public Repos

</text>

<text
  x="35"
  y="154"
  fill="#f1fa8c"
  font-family="Arial, Helvetica, sans-serif"
  font-size="13">

  ◷

</text>

<text
  x="55"
  y="154"
  fill="#f1fa8c"
  font-family="Arial, Helvetica, sans-serif"
  font-size="13">

  Joined GitHub 2 years ago

</text>

<text
  x="35"
  y="185"
  fill="#f1fa8c"
  font-family="Arial, Helvetica, sans-serif"
  font-size="13">

  ▦

</text>

<text
  x="55"
  y="185"
  fill="#f1fa8c"
  font-family="Arial, Helvetica, sans-serif"
  font-size="13">

  @MODELISE-ORG

</text>

<!-- ====================================================== -->
<!-- GRAPH TITLE -->
<!-- ====================================================== -->

<text
  x="1060"
  y="34"
  fill="#f1fa8c"
  font-family="Arial, Helvetica, sans-serif"
  font-size="10"
  text-anchor="end">

  contributions in the last year

</text>


<polygon
  points="340,193 340.00,193.00 341.95,193.00 343.90,89.67 345.85,173.00 347.80,193.00 349.75,173.00 351.70,193.00 353.65,193.00 355.60,193.00 357.55,183.00 359.51,193.00 361.46,193.00 363.41,193.00 365.36,193.00 367.31,193.00 369.26,193.00 371.21,193.00 373.16,193.00 375.11,193.00 377.06,193.00 379.01,193.00 380.96,193.00 382.91,193.00 384.86,193.00 386.81,193.00 388.76,193.00 390.71,193.00 392.66,193.00 394.62,193.00 396.57,193.00 398.52,193.00 400.47,193.00 402.42,193.00 404.37,193.00 406.32,193.00 408.27,193.00 410.22,193.00 412.17,193.00 414.12,193.00 416.07,193.00 418.02,193.00 419.97,193.00 421.92,193.00 423.87,193.00 425.82,193.00 427.77,193.00 429.73,193.00 431.68,193.00 433.63,193.00 435.58,193.00 437.53,193.00 439.48,193.00 441.43,193.00 443.38,193.00 445.33,193.00 447.28,193.00 449.23,193.00 451.18,193.00 453.13,193.00 455.08,193.00 457.03,193.00 458.98,193.00 460.93,193.00 462.88,193.00 464.84,193.00 466.79,193.00 468.74,193.00 470.69,193.00 472.64,193.00 474.59,186.33 476.54,189.67 478.49,193.00 480.44,193.00 482.39,193.00 484.34,193.00 486.29,193.00 488.24,193.00 490.19,193.00 492.14,186.33 494.09,183.00 496.04,166.33 497.99,166.33 499.95,193.00 501.90,193.00 503.85,193.00 505.80,193.00 507.75,193.00 509.70,193.00 511.65,193.00 513.60,193.00 515.55,193.00 517.50,193.00 519.45,193.00 521.40,189.67 523.35,169.67 525.30,193.00 527.25,193.00 529.20,189.67 531.15,169.67 533.10,183.00 535.05,193.00 537.01,193.00 538.96,193.00 540.91,193.00 542.86,193.00 544.81,193.00 546.76,193.00 548.71,183.00 550.66,193.00 552.61,193.00 554.56,193.00 556.51,193.00 558.46,193.00 560.41,193.00 562.36,193.00 564.31,193.00 566.26,193.00 568.21,193.00 570.16,193.00 572.12,193.00 574.07,193.00 576.02,193.00 577.97,186.33 579.92,176.33 581.87,193.00 583.82,193.00 585.77,193.00 587.72,193.00 589.67,193.00 591.62,193.00 593.57,189.67 595.52,189.67 597.47,193.00 599.42,183.00 601.37,193.00 603.32,143.00 605.27,193.00 607.23,189.67 609.18,193.00 611.13,183.00 613.08,189.67 615.03,193.00 616.98,153.00 618.93,193.00 620.88,193.00 622.83,193.00 624.78,193.00 626.73,193.00 628.68,193.00 630.63,193.00 632.58,176.33 634.53,189.67 636.48,193.00 638.43,193.00 640.38,193.00 642.34,193.00 644.29,193.00 646.24,193.00 648.19,193.00 650.14,193.00 652.09,193.00 654.04,193.00 655.99,193.00 657.94,193.00 659.89,193.00 661.84,193.00 663.79,193.00 665.74,149.67 667.69,193.00 669.64,193.00 671.59,193.00 673.54,193.00 675.49,186.33 677.45,193.00 679.40,193.00 681.35,193.00 683.30,193.00 685.25,193.00 687.20,193.00 689.15,193.00 691.10,193.00 693.05,193.00 695.00,193.00 696.95,193.00 698.90,183.00 700.85,179.67 702.80,193.00 704.75,193.00 706.70,193.00 708.65,193.00 710.60,193.00 712.55,183.00 714.51,193.00 716.46,193.00 718.41,193.00 720.36,193.00 722.31,193.00 724.26,193.00 726.21,193.00 728.16,193.00 730.11,193.00 732.06,193.00 734.01,166.33 735.96,193.00 737.91,193.00 739.86,193.00 741.81,193.00 743.76,193.00 745.71,193.00 747.66,193.00 749.62,193.00 751.57,193.00 753.52,193.00 755.47,193.00 757.42,193.00 759.37,193.00 761.32,193.00 763.27,193.00 765.22,193.00 767.17,193.00 769.12,193.00 771.07,193.00 773.02,193.00 774.97,193.00 776.92,193.00 778.87,193.00 780.82,193.00 782.77,193.00 784.73,193.00 786.68,193.00 788.63,193.00 790.58,193.00 792.53,193.00 794.48,193.00 796.43,193.00 798.38,193.00 800.33,193.00 802.28,193.00 804.23,193.00 806.18,193.00 808.13,193.00 810.08,193.00 812.03,193.00 813.98,193.00 815.93,193.00 817.88,193.00 819.84,193.00 821.79,193.00 823.74,193.00 825.69,193.00 827.64,193.00 829.59,193.00 831.54,193.00 833.49,193.00 835.44,193.00 837.39,193.00 839.34,193.00 841.29,193.00 843.24,193.00 845.19,193.00 847.14,193.00 849.09,193.00 851.04,193.00 852.99,193.00 854.95,193.00 856.90,193.00 858.85,193.00 860.80,193.00 862.75,193.00 864.70,193.00 866.65,193.00 868.60,193.00 870.55,193.00 872.50,193.00 874.45,193.00 876.40,193.00 878.35,193.00 880.30,193.00 882.25,193.00 884.20,193.00 886.15,193.00 888.10,193.00 890.05,193.00 892.01,193.00 893.96,193.00 895.91,193.00 897.86,193.00 899.81,193.00 901.76,193.00 903.71,193.00 905.66,193.00 907.61,193.00 909.56,193.00 911.51,193.00 913.46,193.00 915.41,193.00 917.36,193.00 919.31,193.00 921.26,193.00 923.21,193.00 925.16,193.00 927.12,193.00 929.07,193.00 931.02,193.00 932.97,193.00 934.92,193.00 936.87,193.00 938.82,193.00 940.77,193.00 942.72,173.00 944.67,183.00 946.62,176.33 948.57,189.67 950.52,193.00 952.47,189.67 954.42,189.67 956.37,193.00 958.32,189.67 960.27,179.67 962.23,193.00 964.18,169.67 966.13,183.00 968.08,193.00 970.03,193.00 971.98,193.00 973.93,166.33 975.88,169.67 977.83,133.00 979.78,173.00 981.73,119.67 983.68,173.00 985.63,153.00 987.58,43.00 989.53,149.67 991.48,169.67 993.43,156.33 995.38,179.67 997.34,179.67 999.29,153.00 1001.24,113.00 1003.19,183.00 1005.14,173.00 1007.09,193.00 1009.04,176.33 1010.99,186.33 1012.94,189.67 1014.89,173.00 1016.84,189.67 1018.79,189.67 1020.74,179.67 1022.69,186.33 1024.64,183.00 1026.59,186.33 1028.54,186.33 1030.49,169.67 1032.45,189.67 1034.40,189.67 1036.35,173.00 1038.30,189.67 1040.25,186.33 1042.20,186.33 1044.15,186.33 1046.10,176.33 1048.05,183.00 1050.00,139.67 1050,193"
  fill="url(#mountainGradient)"/>



    <line
      x1="341.95"
      y1="193.00"
      x2="343.90"
      y2="89.67"
      stroke="url(#lineGradient)"
      stroke-width="2.5"
      stroke-linecap="round"/>

    

    <line
      x1="343.90"
      y1="89.67"
      x2="345.85"
      y2="173.00"
      stroke="url(#lineGradient)"
      stroke-width="2.5"
      stroke-linecap="round"/>

    

    <line
      x1="345.85"
      y1="173.00"
      x2="347.80"
      y2="193.00"
      stroke="url(#lineGradient)"
      stroke-width="2.5"
      stroke-linecap="round"/>

    

    <line
      x1="347.80"
      y1="193.00"
      x2="349.75"
      y2="173.00"
      stroke="url(#lineGradient)"
      stroke-width="2.5"
      stroke-linecap="round"/>

    

    <line
      x1="349.75"
      y1="173.00"
      x2="351.70"
      y2="193.00"
      stroke="url(#lineGradient)"
      stroke-width="2.5"
      stroke-linecap="round"/>

    

    <line
      x1="355.60"
      y1="193.00"
      x2="357.55"
      y2="183.00"
      stroke="url(#lineGradient)"
      stroke-width="2.5"
      stroke-linecap="round"/>

    

    <line
      x1="357.55"
      y1="183.00"
      x2="359.51"
      y2="193.00"
      stroke="url(#lineGradient)"
      stroke-width="2.5"
      stroke-linecap="round"/>

    

    <line
      x1="472.64"
      y1="193.00"
      x2="474.59"
      y2="186.33"
      stroke="url(#lineGradient)"
      stroke-width="2.5"
      stroke-linecap="round"/>

    

    <line
      x1="474.59"
      y1="186.33"
      x2="476.54"
      y2="189.67"
      stroke="url(#lineGradient)"
      stroke-width="2.5"
      stroke-linecap="round"/>

    

    <line
      x1="476.54"
      y1="189.67"
      x2="478.49"
      y2="193.00"
      stroke="url(#lineGradient)"
      stroke-width="2.5"
      stroke-linecap="round"/>

    

    <line
      x1="490.19"
      y1="193.00"
      x2="492.14"
      y2="186.33"
      stroke="url(#lineGradient)"
      stroke-width="2.5"
      stroke-linecap="round"/>

    

    <line
      x1="492.14"
      y1="186.33"
      x2="494.09"
      y2="183.00"
      stroke="url(#lineGradient)"
      stroke-width="2.5"
      stroke-linecap="round"/>

    

    <line
      x1="494.09"
      y1="183.00"
      x2="496.04"
      y2="166.33"
      stroke="url(#lineGradient)"
      stroke-width="2.5"
      stroke-linecap="round"/>

    

    <line
      x1="496.04"
      y1="166.33"
      x2="497.99"
      y2="166.33"
      stroke="url(#lineGradient)"
      stroke-width="2.5"
      stroke-linecap="round"/>

    

    <line
      x1="497.99"
      y1="166.33"
      x2="499.95"
      y2="193.00"
      stroke="url(#lineGradient)"
      stroke-width="2.5"
      stroke-linecap="round"/>

    

    <line
      x1="519.45"
      y1="193.00"
      x2="521.40"
      y2="189.67"
      stroke="url(#lineGradient)"
      stroke-width="2.5"
      stroke-linecap="round"/>

    

    <line
      x1="521.40"
      y1="189.67"
      x2="523.35"
      y2="169.67"
      stroke="url(#lineGradient)"
      stroke-width="2.5"
      stroke-linecap="round"/>

    

    <line
      x1="523.35"
      y1="169.67"
      x2="525.30"
      y2="193.00"
      stroke="url(#lineGradient)"
      stroke-width="2.5"
      stroke-linecap="round"/>

    

    <line
      x1="527.25"
      y1="193.00"
      x2="529.20"
      y2="189.67"
      stroke="url(#lineGradient)"
      stroke-width="2.5"
      stroke-linecap="round"/>

    

    <line
      x1="529.20"
      y1="189.67"
      x2="531.15"
      y2="169.67"
      stroke="url(#lineGradient)"
      stroke-width="2.5"
      stroke-linecap="round"/>

    

    <line
      x1="531.15"
      y1="169.67"
      x2="533.10"
      y2="183.00"
      stroke="url(#lineGradient)"
      stroke-width="2.5"
      stroke-linecap="round"/>

    

    <line
      x1="533.10"
      y1="183.00"
      x2="535.05"
      y2="193.00"
      stroke="url(#lineGradient)"
      stroke-width="2.5"
      stroke-linecap="round"/>

    

    <line
      x1="546.76"
      y1="193.00"
      x2="548.71"
      y2="183.00"
      stroke="url(#lineGradient)"
      stroke-width="2.5"
      stroke-linecap="round"/>

    

    <line
      x1="548.71"
      y1="183.00"
      x2="550.66"
      y2="193.00"
      stroke="url(#lineGradient)"
      stroke-width="2.5"
      stroke-linecap="round"/>

    

    <line
      x1="576.02"
      y1="193.00"
      x2="577.97"
      y2="186.33"
      stroke="url(#lineGradient)"
      stroke-width="2.5"
      stroke-linecap="round"/>

    

    <line
      x1="577.97"
      y1="186.33"
      x2="579.92"
      y2="176.33"
      stroke="url(#lineGradient)"
      stroke-width="2.5"
      stroke-linecap="round"/>

    

    <line
      x1="579.92"
      y1="176.33"
      x2="581.87"
      y2="193.00"
      stroke="url(#lineGradient)"
      stroke-width="2.5"
      stroke-linecap="round"/>

    

    <line
      x1="591.62"
      y1="193.00"
      x2="593.57"
      y2="189.67"
      stroke="url(#lineGradient)"
      stroke-width="2.5"
      stroke-linecap="round"/>

    

    <line
      x1="593.57"
      y1="189.67"
      x2="595.52"
      y2="189.67"
      stroke="url(#lineGradient)"
      stroke-width="2.5"
      stroke-linecap="round"/>

    

    <line
      x1="595.52"
      y1="189.67"
      x2="597.47"
      y2="193.00"
      stroke="url(#lineGradient)"
      stroke-width="2.5"
      stroke-linecap="round"/>

    

    <line
      x1="597.47"
      y1="193.00"
      x2="599.42"
      y2="183.00"
      stroke="url(#lineGradient)"
      stroke-width="2.5"
      stroke-linecap="round"/>

    

    <line
      x1="599.42"
      y1="183.00"
      x2="601.37"
      y2="193.00"
      stroke="url(#lineGradient)"
      stroke-width="2.5"
      stroke-linecap="round"/>

    

    <line
      x1="601.37"
      y1="193.00"
      x2="603.32"
      y2="143.00"
      stroke="url(#lineGradient)"
      stroke-width="2.5"
      stroke-linecap="round"/>

    

    <line
      x1="603.32"
      y1="143.00"
      x2="605.27"
      y2="193.00"
      stroke="url(#lineGradient)"
      stroke-width="2.5"
      stroke-linecap="round"/>

    

    <line
      x1="605.27"
      y1="193.00"
      x2="607.23"
      y2="189.67"
      stroke="url(#lineGradient)"
      stroke-width="2.5"
      stroke-linecap="round"/>

    

    <line
      x1="607.23"
      y1="189.67"
      x2="609.18"
      y2="193.00"
      stroke="url(#lineGradient)"
      stroke-width="2.5"
      stroke-linecap="round"/>

    

    <line
      x1="609.18"
      y1="193.00"
      x2="611.13"
      y2="183.00"
      stroke="url(#lineGradient)"
      stroke-width="2.5"
      stroke-linecap="round"/>

    

    <line
      x1="611.13"
      y1="183.00"
      x2="613.08"
      y2="189.67"
      stroke="url(#lineGradient)"
      stroke-width="2.5"
      stroke-linecap="round"/>

    

    <line
      x1="613.08"
      y1="189.67"
      x2="615.03"
      y2="193.00"
      stroke="url(#lineGradient)"
      stroke-width="2.5"
      stroke-linecap="round"/>

    

    <line
      x1="615.03"
      y1="193.00"
      x2="616.98"
      y2="153.00"
      stroke="url(#lineGradient)"
      stroke-width="2.5"
      stroke-linecap="round"/>

    

    <line
      x1="616.98"
      y1="153.00"
      x2="618.93"
      y2="193.00"
      stroke="url(#lineGradient)"
      stroke-width="2.5"
      stroke-linecap="round"/>

    

    <line
      x1="630.63"
      y1="193.00"
      x2="632.58"
      y2="176.33"
      stroke="url(#lineGradient)"
      stroke-width="2.5"
      stroke-linecap="round"/>

    

    <line
      x1="632.58"
      y1="176.33"
      x2="634.53"
      y2="189.67"
      stroke="url(#lineGradient)"
      stroke-width="2.5"
      stroke-linecap="round"/>

    

    <line
      x1="634.53"
      y1="189.67"
      x2="636.48"
      y2="193.00"
      stroke="url(#lineGradient)"
      stroke-width="2.5"
      stroke-linecap="round"/>

    

    <line
      x1="663.79"
      y1="193.00"
      x2="665.74"
      y2="149.67"
      stroke="url(#lineGradient)"
      stroke-width="2.5"
      stroke-linecap="round"/>

    

    <line
      x1="665.74"
      y1="149.67"
      x2="667.69"
      y2="193.00"
      stroke="url(#lineGradient)"
      stroke-width="2.5"
      stroke-linecap="round"/>

    

    <line
      x1="673.54"
      y1="193.00"
      x2="675.49"
      y2="186.33"
      stroke="url(#lineGradient)"
      stroke-width="2.5"
      stroke-linecap="round"/>

    

    <line
      x1="675.49"
      y1="186.33"
      x2="677.45"
      y2="193.00"
      stroke="url(#lineGradient)"
      stroke-width="2.5"
      stroke-linecap="round"/>

    

    <line
      x1="696.95"
      y1="193.00"
      x2="698.90"
      y2="183.00"
      stroke="url(#lineGradient)"
      stroke-width="2.5"
      stroke-linecap="round"/>

    

    <line
      x1="698.90"
      y1="183.00"
      x2="700.85"
      y2="179.67"
      stroke="url(#lineGradient)"
      stroke-width="2.5"
      stroke-linecap="round"/>

    

    <line
      x1="700.85"
      y1="179.67"
      x2="702.80"
      y2="193.00"
      stroke="url(#lineGradient)"
      stroke-width="2.5"
      stroke-linecap="round"/>

    

    <line
      x1="710.60"
      y1="193.00"
      x2="712.55"
      y2="183.00"
      stroke="url(#lineGradient)"
      stroke-width="2.5"
      stroke-linecap="round"/>

    

    <line
      x1="712.55"
      y1="183.00"
      x2="714.51"
      y2="193.00"
      stroke="url(#lineGradient)"
      stroke-width="2.5"
      stroke-linecap="round"/>

    

    <line
      x1="732.06"
      y1="193.00"
      x2="734.01"
      y2="166.33"
      stroke="url(#lineGradient)"
      stroke-width="2.5"
      stroke-linecap="round"/>

    

    <line
      x1="734.01"
      y1="166.33"
      x2="735.96"
      y2="193.00"
      stroke="url(#lineGradient)"
      stroke-width="2.5"
      stroke-linecap="round"/>

    

    <line
      x1="940.77"
      y1="193.00"
      x2="942.72"
      y2="173.00"
      stroke="url(#lineGradient)"
      stroke-width="2.5"
      stroke-linecap="round"/>

    

    <line
      x1="942.72"
      y1="173.00"
      x2="944.67"
      y2="183.00"
      stroke="url(#lineGradient)"
      stroke-width="2.5"
      stroke-linecap="round"/>

    

    <line
      x1="944.67"
      y1="183.00"
      x2="946.62"
      y2="176.33"
      stroke="url(#lineGradient)"
      stroke-width="2.5"
      stroke-linecap="round"/>

    

    <line
      x1="946.62"
      y1="176.33"
      x2="948.57"
      y2="189.67"
      stroke="url(#lineGradient)"
      stroke-width="2.5"
      stroke-linecap="round"/>

    

    <line
      x1="948.57"
      y1="189.67"
      x2="950.52"
      y2="193.00"
      stroke="url(#lineGradient)"
      stroke-width="2.5"
      stroke-linecap="round"/>

    

    <line
      x1="950.52"
      y1="193.00"
      x2="952.47"
      y2="189.67"
      stroke="url(#lineGradient)"
      stroke-width="2.5"
      stroke-linecap="round"/>

    

    <line
      x1="952.47"
      y1="189.67"
      x2="954.42"
      y2="189.67"
      stroke="url(#lineGradient)"
      stroke-width="2.5"
      stroke-linecap="round"/>

    

    <line
      x1="954.42"
      y1="189.67"
      x2="956.37"
      y2="193.00"
      stroke="url(#lineGradient)"
      stroke-width="2.5"
      stroke-linecap="round"/>

    

    <line
      x1="956.37"
      y1="193.00"
      x2="958.32"
      y2="189.67"
      stroke="url(#lineGradient)"
      stroke-width="2.5"
      stroke-linecap="round"/>

    

    <line
      x1="958.32"
      y1="189.67"
      x2="960.27"
      y2="179.67"
      stroke="url(#lineGradient)"
      stroke-width="2.5"
      stroke-linecap="round"/>

    

    <line
      x1="960.27"
      y1="179.67"
      x2="962.23"
      y2="193.00"
      stroke="url(#lineGradient)"
      stroke-width="2.5"
      stroke-linecap="round"/>

    

    <line
      x1="962.23"
      y1="193.00"
      x2="964.18"
      y2="169.67"
      stroke="url(#lineGradient)"
      stroke-width="2.5"
      stroke-linecap="round"/>

    

    <line
      x1="964.18"
      y1="169.67"
      x2="966.13"
      y2="183.00"
      stroke="url(#lineGradient)"
      stroke-width="2.5"
      stroke-linecap="round"/>

    

    <line
      x1="966.13"
      y1="183.00"
      x2="968.08"
      y2="193.00"
      stroke="url(#lineGradient)"
      stroke-width="2.5"
      stroke-linecap="round"/>

    

    <line
      x1="971.98"
      y1="193.00"
      x2="973.93"
      y2="166.33"
      stroke="url(#lineGradient)"
      stroke-width="2.5"
      stroke-linecap="round"/>

    

    <line
      x1="973.93"
      y1="166.33"
      x2="975.88"
      y2="169.67"
      stroke="url(#lineGradient)"
      stroke-width="2.5"
      stroke-linecap="round"/>

    

    <line
      x1="975.88"
      y1="169.67"
      x2="977.83"
      y2="133.00"
      stroke="url(#lineGradient)"
      stroke-width="2.5"
      stroke-linecap="round"/>

    

    <line
      x1="977.83"
      y1="133.00"
      x2="979.78"
      y2="173.00"
      stroke="url(#lineGradient)"
      stroke-width="2.5"
      stroke-linecap="round"/>

    

    <line
      x1="979.78"
      y1="173.00"
      x2="981.73"
      y2="119.67"
      stroke="url(#lineGradient)"
      stroke-width="2.5"
      stroke-linecap="round"/>

    

    <line
      x1="981.73"
      y1="119.67"
      x2="983.68"
      y2="173.00"
      stroke="url(#lineGradient)"
      stroke-width="2.5"
      stroke-linecap="round"/>

    

    <line
      x1="983.68"
      y1="173.00"
      x2="985.63"
      y2="153.00"
      stroke="url(#lineGradient)"
      stroke-width="2.5"
      stroke-linecap="round"/>

    

    <line
      x1="985.63"
      y1="153.00"
      x2="987.58"
      y2="43.00"
      stroke="url(#lineGradient)"
      stroke-width="2.5"
      stroke-linecap="round"/>

    

    <line
      x1="987.58"
      y1="43.00"
      x2="989.53"
      y2="149.67"
      stroke="url(#lineGradient)"
      stroke-width="2.5"
      stroke-linecap="round"/>

    

    <line
      x1="989.53"
      y1="149.67"
      x2="991.48"
      y2="169.67"
      stroke="url(#lineGradient)"
      stroke-width="2.5"
      stroke-linecap="round"/>

    

    <line
      x1="991.48"
      y1="169.67"
      x2="993.43"
      y2="156.33"
      stroke="url(#lineGradient)"
      stroke-width="2.5"
      stroke-linecap="round"/>

    

    <line
      x1="993.43"
      y1="156.33"
      x2="995.38"
      y2="179.67"
      stroke="url(#lineGradient)"
      stroke-width="2.5"
      stroke-linecap="round"/>

    

    <line
      x1="995.38"
      y1="179.67"
      x2="997.34"
      y2="179.67"
      stroke="url(#lineGradient)"
      stroke-width="2.5"
      stroke-linecap="round"/>

    

    <line
      x1="997.34"
      y1="179.67"
      x2="999.29"
      y2="153.00"
      stroke="url(#lineGradient)"
      stroke-width="2.5"
      stroke-linecap="round"/>

    

    <line
      x1="999.29"
      y1="153.00"
      x2="1001.24"
      y2="113.00"
      stroke="url(#lineGradient)"
      stroke-width="2.5"
      stroke-linecap="round"/>

    

    <line
      x1="1001.24"
      y1="113.00"
      x2="1003.19"
      y2="183.00"
      stroke="url(#lineGradient)"
      stroke-width="2.5"
      stroke-linecap="round"/>

    

    <line
      x1="1003.19"
      y1="183.00"
      x2="1005.14"
      y2="173.00"
      stroke="url(#lineGradient)"
      stroke-width="2.5"
      stroke-linecap="round"/>

    

    <line
      x1="1005.14"
      y1="173.00"
      x2="1007.09"
      y2="193.00"
      stroke="url(#lineGradient)"
      stroke-width="2.5"
      stroke-linecap="round"/>

    

    <line
      x1="1007.09"
      y1="193.00"
      x2="1009.04"
      y2="176.33"
      stroke="url(#lineGradient)"
      stroke-width="2.5"
      stroke-linecap="round"/>

    

    <line
      x1="1009.04"
      y1="176.33"
      x2="1010.99"
      y2="186.33"
      stroke="url(#lineGradient)"
      stroke-width="2.5"
      stroke-linecap="round"/>

    

    <line
      x1="1010.99"
      y1="186.33"
      x2="1012.94"
      y2="189.67"
      stroke="url(#lineGradient)"
      stroke-width="2.5"
      stroke-linecap="round"/>

    

    <line
      x1="1012.94"
      y1="189.67"
      x2="1014.89"
      y2="173.00"
      stroke="url(#lineGradient)"
      stroke-width="2.5"
      stroke-linecap="round"/>

    

    <line
      x1="1014.89"
      y1="173.00"
      x2="1016.84"
      y2="189.67"
      stroke="url(#lineGradient)"
      stroke-width="2.5"
      stroke-linecap="round"/>

    

    <line
      x1="1016.84"
      y1="189.67"
      x2="1018.79"
      y2="189.67"
      stroke="url(#lineGradient)"
      stroke-width="2.5"
      stroke-linecap="round"/>

    

    <line
      x1="1018.79"
      y1="189.67"
      x2="1020.74"
      y2="179.67"
      stroke="url(#lineGradient)"
      stroke-width="2.5"
      stroke-linecap="round"/>

    

    <line
      x1="1020.74"
      y1="179.67"
      x2="1022.69"
      y2="186.33"
      stroke="url(#lineGradient)"
      stroke-width="2.5"
      stroke-linecap="round"/>

    

    <line
      x1="1022.69"
      y1="186.33"
      x2="1024.64"
      y2="183.00"
      stroke="url(#lineGradient)"
      stroke-width="2.5"
      stroke-linecap="round"/>

    

    <line
      x1="1024.64"
      y1="183.00"
      x2="1026.59"
      y2="186.33"
      stroke="url(#lineGradient)"
      stroke-width="2.5"
      stroke-linecap="round"/>

    

    <line
      x1="1026.59"
      y1="186.33"
      x2="1028.54"
      y2="186.33"
      stroke="url(#lineGradient)"
      stroke-width="2.5"
      stroke-linecap="round"/>

    

    <line
      x1="1028.54"
      y1="186.33"
      x2="1030.49"
      y2="169.67"
      stroke="url(#lineGradient)"
      stroke-width="2.5"
      stroke-linecap="round"/>

    

    <line
      x1="1030.49"
      y1="169.67"
      x2="1032.45"
      y2="189.67"
      stroke="url(#lineGradient)"
      stroke-width="2.5"
      stroke-linecap="round"/>

    

    <line
      x1="1032.45"
      y1="189.67"
      x2="1034.40"
      y2="189.67"
      stroke="url(#lineGradient)"
      stroke-width="2.5"
      stroke-linecap="round"/>

    

    <line
      x1="1034.40"
      y1="189.67"
      x2="1036.35"
      y2="173.00"
      stroke="url(#lineGradient)"
      stroke-width="2.5"
      stroke-linecap="round"/>

    

    <line
      x1="1036.35"
      y1="173.00"
      x2="1038.30"
      y2="189.67"
      stroke="url(#lineGradient)"
      stroke-width="2.5"
      stroke-linecap="round"/>

    

    <line
      x1="1038.30"
      y1="189.67"
      x2="1040.25"
      y2="186.33"
      stroke="url(#lineGradient)"
      stroke-width="2.5"
      stroke-linecap="round"/>

    

    <line
      x1="1040.25"
      y1="186.33"
      x2="1042.20"
      y2="186.33"
      stroke="url(#lineGradient)"
      stroke-width="2.5"
      stroke-linecap="round"/>

    

    <line
      x1="1042.20"
      y1="186.33"
      x2="1044.15"
      y2="186.33"
      stroke="url(#lineGradient)"
      stroke-width="2.5"
      stroke-linecap="round"/>

    

    <line
      x1="1044.15"
      y1="186.33"
      x2="1046.10"
      y2="176.33"
      stroke="url(#lineGradient)"
      stroke-width="2.5"
      stroke-linecap="round"/>

    

    <line
      x1="1046.10"
      y1="176.33"
      x2="1048.05"
      y2="183.00"
      stroke="url(#lineGradient)"
      stroke-width="2.5"
      stroke-linecap="round"/>

    

    <line
      x1="1048.05"
      y1="183.00"
      x2="1050.00"
      y2="139.67"
      stroke="url(#lineGradient)"
      stroke-width="2.5"
      stroke-linecap="round"/>

    

    <text
      x="1055"
      y="196.00"
      fill="#f1fa8c"
      font-family="Arial, Helvetica, sans-serif"
      font-size="9">

      0

    </text>

    

    <text
      x="1055"
      y="176.00"
      fill="#f1fa8c"
      font-family="Arial, Helvetica, sans-serif"
      font-size="9">

      6

    </text>

    

    <text
      x="1055"
      y="156.00"
      fill="#f1fa8c"
      font-family="Arial, Helvetica, sans-serif"
      font-size="9">

      12

    </text>

    

    <text
      x="1055"
      y="136.00"
      fill="#f1fa8c"
      font-family="Arial, Helvetica, sans-serif"
      font-size="9">

      18

    </text>

    

    <text
      x="1055"
      y="116.00"
      fill="#f1fa8c"
      font-family="Arial, Helvetica, sans-serif"
      font-size="9">

      24

    </text>

    

    <text
      x="1055"
      y="96.00"
      fill="#f1fa8c"
      font-family="Arial, Helvetica, sans-serif"
      font-size="9">

      30

    </text>

    

    <text
      x="1055"
      y="76.00"
      fill="#f1fa8c"
      font-family="Arial, Helvetica, sans-serif"
      font-size="9">

      36

    </text>

    

    <text
      x="1055"
      y="56.00"
      fill="#f1fa8c"
      font-family="Arial, Helvetica, sans-serif"
      font-size="9">

      42

    </text>

    

</svg>
